<?xml version="1.0" encoding="utf-8"?>
<!-- Generator: Adobe Illustrator 26.5.0, SVG Export Plug-In . SVG Version: 6.00 Build 0)  -->
<svg version="1.1" id="Calque_1" xmlns="http://www.w3.org/2000/svg" xmlns:xlink="http://www.w3.org/1999/xlink" x="0px" y="0px"
	 width="805.13px" height="384.17px" viewBox="0 0 805.13 384.17" style="enable-background:new 0 0 805.13 384.17;"
	 xml:space="preserve">
<style type="text/css">
	.st0{fill:#FFFFFF;}
	.st1{fill:#0072CE;}
	.st2{fill:#1E2522;}
</style>
<g>
	<g>
		<g>
			<g>
				<g>
					<g>
						<path class="st0" d="M2356.95,204.07l-86.27-123.3v123.3H2220V15.52c0-8.57,6.95-15.52,15.52-15.52l28.62,0
							c5.05,0,9.79,2.46,12.7,6.59l138.86,197.48H2356.95z"/>
					</g>
				</g>
			</g>
		</g>
		<rect x="2364.28" y="0" class="st0" width="50.7" height="50.7"/>
	</g>
	<g>
		<path class="st0" d="M2073.76,353.01V334.8h67.76v-22.13h-67.76v-16.51c0-5.96,2.04-8,8-8h61.29v-23.15h-81.89
			c-11.07,0-18.05,5.62-18.05,18.39v82.57c0,12.77,6.98,18.22,18.05,18.22h82.57v-23.15h-61.97
			C2075.8,361.01,2073.76,358.97,2073.76,353.01z"/>
		<polygon class="st0" points="2267.95,264.99 2236.96,264.99 2211.59,302.45 2186.23,264.99 2149.96,264.99 2194.06,323.73 
			2148.43,384.17 2184.87,384.17 2211.59,345.18 2238.32,384.17 2274.76,384.17 2229.3,323.73 2267.95,272.25 2267.95,288.83 
			2312.21,288.83 2312.21,384.17 2342.86,384.17 2342.86,288.83 2387.12,288.83 2387.12,264.99 2273.4,264.99 		"/>
		<path class="st0" d="M2424.53,353.01V334.8h67.76v-22.13h-67.76v-16.51c0-5.96,2.04-8,8-8h61.29v-23.15h-81.89
			c-11.07,0-18.05,5.62-18.05,18.39v82.57c0,12.77,6.98,18.22,18.05,18.22h82.57v-23.15h-61.97
			C2426.57,361.01,2424.53,358.97,2424.53,353.01z"/>
		<path class="st0" d="M2530.86,324.58c0-28.94,7.83-35.75,35.07-35.75h34.05v-23.83h-49.2c-40.01,0-51.25,22.13-51.25,59.59
			c0,37.46,11.24,59.59,51.25,59.59h50.9v-23.83h-35.75C2538.69,360.33,2530.86,353.52,2530.86,324.58z"/>
		<polygon class="st0" points="2692.72,264.99 2692.72,310.62 2640.45,310.62 2640.45,264.99 2609.81,264.99 2609.81,384.17 
			2640.45,384.17 2640.45,334.46 2692.72,334.46 2692.72,384.17 2723.37,384.17 2723.37,264.99 		"/>
	</g>
	<path class="st0" d="M2033.34,264.08h-29.8v77.64l-51.87-73.76c-1.71-2.43-4.5-3.88-7.47-3.88h-16.83c-5.04,0-9.13,4.09-9.13,9.13
		v110.9h29.8v-72.52l50.74,72.52h4.75h29.8V264.08z"/>
</g>
<g>
	<g>
		<g>
			<g>
				<g>
					<g>
						<path d="M1397.83,204.07l-86.27-123.3v123.3h-50.67V15.52c0-8.57,6.95-15.52,15.52-15.52l28.62,0c5.05,0,9.79,2.46,12.7,6.59
							l138.86,197.48H1397.83z"/>
					</g>
				</g>
			</g>
		</g>
		<rect x="1405.17" y="0" width="50.7" height="50.7"/>
	</g>
	<g>
		<path d="M1114.64,353.01V334.8h67.76v-22.13h-67.76v-16.51c0-5.96,2.04-8,8-8h61.29v-23.15h-81.89
			c-11.07,0-18.05,5.62-18.05,18.39v82.57c0,12.77,6.98,18.22,18.05,18.22h82.57v-23.15h-61.97
			C1116.68,361.01,1114.64,358.97,1114.64,353.01z"/>
		<polygon points="1308.83,264.99 1277.84,264.99 1252.48,302.45 1227.11,264.99 1190.85,264.99 1234.94,323.73 1189.31,384.17 
			1225.75,384.17 1252.48,345.18 1279.21,384.17 1315.64,384.17 1270.18,323.73 1308.83,272.25 1308.83,288.83 1353.1,288.83 
			1353.1,384.17 1383.74,384.17 1383.74,288.83 1428.01,288.83 1428.01,264.99 1314.28,264.99 		"/>
		<path d="M1465.41,353.01V334.8h67.76v-22.13h-67.76v-16.51c0-5.96,2.04-8,8-8h61.29v-23.15h-81.89
			c-11.07,0-18.05,5.62-18.05,18.39v82.57c0,12.77,6.98,18.22,18.05,18.22h82.57v-23.15h-61.97
			C1467.45,361.01,1465.41,358.97,1465.41,353.01z"/>
		<path d="M1571.74,324.58c0-28.94,7.83-35.75,35.07-35.75h34.05v-23.83h-49.2c-40.01,0-51.25,22.13-51.25,59.59
			c0,37.46,11.24,59.59,51.25,59.59h50.9v-23.83h-35.75C1579.57,360.33,1571.74,353.52,1571.74,324.58z"/>
		<polygon points="1733.6,264.99 1733.6,310.62 1681.34,310.62 1681.34,264.99 1650.69,264.99 1650.69,384.17 1681.34,384.17 
			1681.34,334.46 1733.6,334.46 1733.6,384.17 1764.25,384.17 1764.25,264.99 		"/>
	</g>
	<path d="M1074.22,264.08h-29.8v77.64l-51.87-73.76c-1.71-2.43-4.5-3.88-7.47-3.88h-16.83c-5.04,0-9.13,4.09-9.13,9.13v110.9h29.8
		v-72.52l50.74,72.52h4.75h29.8V264.08z"/>
</g>
<g>
	<g>
		<g>
			<g>
				<g>
					<g>
						<path class="st1" d="M438.71,204.07l-86.27-123.3v123.3h-50.67V15.52c0-8.57,6.95-15.52,15.52-15.52l28.62,0
							c5.05,0,9.79,2.46,12.7,6.59l138.86,197.48H438.71z"/>
					</g>
				</g>
			</g>
		</g>
		<rect x="446.05" y="0" class="st2" width="50.7" height="50.7"/>
	</g>
	<g>
		<path class="st2" d="M155.52,353.01V334.8h67.76v-22.13h-67.76v-16.51c0-5.96,2.04-8,8-8h61.29v-23.15h-81.89
			c-11.07,0-18.05,5.62-18.05,18.39v82.57c0,12.77,6.98,18.22,18.05,18.22h82.57v-23.15h-61.97
			C157.57,361.01,155.52,358.97,155.52,353.01z"/>
		<polygon class="st2" points="349.71,264.99 318.73,264.99 293.36,302.45 267.99,264.99 231.73,264.99 275.82,323.73 230.2,384.17 
			266.63,384.17 293.36,345.18 320.09,384.17 356.52,384.17 311.06,323.73 349.71,272.25 349.71,288.83 393.98,288.83 
			393.98,384.17 424.62,384.17 424.62,288.83 468.89,288.83 468.89,264.99 355.16,264.99 		"/>
		<path class="st2" d="M506.29,353.01V334.8h67.76v-22.13h-67.76v-16.51c0-5.96,2.04-8,8-8h61.29v-23.15H493.7
			c-11.07,0-18.05,5.62-18.05,18.39v82.57c0,12.77,6.98,18.22,18.05,18.22h82.57v-23.15h-61.97
			C508.34,361.01,506.29,358.97,506.29,353.01z"/>
		<path class="st2" d="M612.62,324.58c0-28.94,7.83-35.75,35.07-35.75h34.05v-23.83h-49.2c-40.01,0-51.25,22.13-51.25,59.59
			c0,37.46,11.24,59.59,51.25,59.59h50.9v-23.83h-35.75C620.45,360.33,612.62,353.52,612.62,324.58z"/>
		<polygon class="st2" points="774.48,264.99 774.48,310.62 722.22,310.62 722.22,264.99 691.57,264.99 691.57,384.17 
			722.22,384.17 722.22,334.46 774.48,334.46 774.48,384.17 805.13,384.17 805.13,264.99 		"/>
	</g>
	<path class="st2" d="M115.1,264.08H85.3v77.64l-51.87-73.76c-1.71-2.43-4.5-3.88-7.47-3.88H9.13c-5.04,0-9.13,4.09-9.13,9.13v110.9
		h29.8v-72.52l50.74,72.52h4.75h29.8V264.08z"/>
</g>
</svg>
