<svg width="21" height="19" viewBox="0 0 21 19" fill="none" xmlns="http://www.w3.org/2000/svg">
<path d="M21 17.6031V19H0V17.6031H1.4V11.3171C1.4 10.8369 1.49115 10.3858 1.67344 9.96381C1.85573 9.54183 2.10365 9.17442 2.41719 8.86157C2.73073 8.54873 3.1026 8.29772 3.53281 8.10856C3.96302 7.9194 4.41875 7.82481 4.9 7.82481H9.8V3.98334C9.8 3.91786 9.82552 3.8633 9.87656 3.81964C9.9276 3.77599 9.99323 3.73961 10.0734 3.71051C10.1536 3.68141 10.2339 3.66322 10.3141 3.65595C10.3943 3.64867 10.4563 3.64139 10.5 3.63412C10.5437 3.63412 10.6057 3.63776 10.6859 3.64503C10.7661 3.65231 10.8427 3.6705 10.9156 3.6996C10.9885 3.7287 11.0542 3.76508 11.1125 3.80873C11.1708 3.85238 11.2 3.91059 11.2 3.98334V7.82481H16.1C16.5812 7.82481 17.0333 7.91576 17.4562 8.09765C17.8792 8.27953 18.2474 8.53054 18.5609 8.85066C18.8745 9.17078 19.126 9.54183 19.3156 9.96381C19.5052 10.3858 19.6 10.8369 19.6 11.3171V17.6031H21ZM4.9 9.22171C4.63021 9.22171 4.375 9.269 4.13438 9.36358C3.89375 9.45817 3.68229 9.58913 3.5 9.75646C3.31771 9.9238 3.16458 10.1202 3.04062 10.3458C2.91667 10.5713 2.8401 10.8187 2.81094 11.0879C3.08073 11.3862 3.39427 11.6154 3.75156 11.7754C4.10885 11.9355 4.49167 12.0155 4.9 12.0155C5.38125 12.0155 5.79688 11.9209 6.14687 11.7318C6.49687 11.5426 6.82865 11.2661 7.14219 10.9024C7.2224 10.815 7.3026 10.7459 7.38281 10.695C7.46302 10.6441 7.56875 10.6186 7.7 10.6186C7.82396 10.6186 7.92604 10.6441 8.00625 10.695C8.08646 10.7459 8.17031 10.815 8.25781 10.9024C8.56406 11.2589 8.89219 11.5317 9.24219 11.7209C9.59219 11.91 10.0115 12.0082 10.5 12.0155C10.9812 12.0155 11.3969 11.9209 11.7469 11.7318C12.0969 11.5426 12.4286 11.2661 12.7422 10.9024C12.8224 10.815 12.9026 10.7459 12.9828 10.695C13.063 10.6441 13.1687 10.6186 13.3 10.6186C13.424 10.6186 13.526 10.6441 13.6062 10.695C13.6865 10.7459 13.7703 10.815 13.8578 10.9024C14.1641 11.2589 14.4922 11.5317 14.8422 11.7209C15.1922 11.91 15.6115 12.0082 16.1 12.0155C16.501 12.0155 16.8802 11.9355 17.2375 11.7754C17.5948 11.6154 17.912 11.3862 18.1891 11.0879C18.1599 10.826 18.087 10.5822 17.9703 10.3567C17.8536 10.1312 17.7005 9.93107 17.5109 9.75646C17.3214 9.58185 17.1062 9.45089 16.8656 9.36358C16.625 9.27628 16.3698 9.22899 16.1 9.22171H4.9ZM2.8 17.6031H18.2V12.8558C17.85 13.0304 17.5109 13.165 17.1828 13.2596C16.8547 13.3542 16.4937 13.4051 16.1 13.4124C15.575 13.4124 15.0755 13.3251 14.6016 13.1505C14.1276 12.9759 13.6937 12.7103 13.3 12.3538C12.9062 12.703 12.4724 12.965 11.9984 13.1396C11.5245 13.3142 11.025 13.4051 10.5 13.4124C9.975 13.4124 9.47552 13.3251 9.00156 13.1505C8.5276 12.9759 8.09375 12.7103 7.7 12.3538C7.30625 12.703 6.8724 12.965 6.39844 13.1396C5.92448 13.3142 5.425 13.4051 4.9 13.4124C4.50625 13.4124 4.14531 13.3651 3.81719 13.2705C3.48906 13.176 3.15 13.0377 2.8 12.8558V17.6031ZM10.5 2.23722C10.3104 2.23722 10.1464 2.1681 10.0078 2.02987C9.86927 1.89163 9.8 1.72793 9.8 1.53877C9.8 1.45146 9.82917 1.33869 9.8875 1.20046C9.94583 1.06222 10.0115 0.916715 10.0844 0.763929C10.1573 0.611143 10.2339 0.465633 10.3141 0.327398C10.3943 0.189163 10.4563 0.0800306 10.5 0C10.5437 0.0800306 10.6021 0.189163 10.675 0.327398C10.7479 0.465633 10.8245 0.611143 10.9047 0.763929C10.9849 0.916715 11.0542 1.06222 11.1125 1.20046C11.1708 1.33869 11.2 1.45146 11.2 1.53877C11.2 1.72793 11.1307 1.89163 10.9922 2.02987C10.8536 2.1681 10.6896 2.23722 10.5 2.23722Z" fill="#1C1C1C"/>
</svg>
