<svg width="59" height="59" viewBox="0 0 59 59" fill="none" xmlns="http://www.w3.org/2000/svg">
<path d="M16.5937 37.064C21.708 37.064 25.854 33.7353 25.854 29.6291C25.854 25.5229 21.708 22.1941 16.5937 22.1941C11.4794 22.1941 7.3335 25.5229 7.3335 29.6291C7.3335 33.7353 11.4794 37.064 16.5937 37.064Z" fill="white"/>
<path d="M16.5843 21.936C7.90487 21.936 5.07472 31.7079 6.2962 31.7079C6.65112 31.7079 6.9369 31.1225 7.37479 30.2928C7.44393 30.9289 7.61448 31.542 7.87261 32.1227C9.0019 34.3214 11.2928 35.8241 13.9339 35.8241C17.6998 35.8241 20.7512 32.7727 20.7512 29.0068C20.7512 27.541 20.2857 26.1813 19.4975 25.0704C25.3606 26.4117 25.7524 31.7079 26.8725 31.7079C28.1585 31.7079 25.2638 21.936 16.5843 21.936ZM18.9259 27.7991C18.7738 28.5643 17.9164 29.0437 17.013 28.8639C16.105 28.6841 15.4965 27.919 15.6486 27.1538C15.8007 26.3887 16.6581 25.9093 17.5615 26.0891C18.465 26.2688 19.078 27.034 18.9259 27.7991Z" fill="#2F2F2F"/>
<path d="M42.4062 37.064C47.5205 37.064 51.6665 33.7353 51.6665 29.6291C51.6665 25.5229 47.5205 22.1941 42.4062 22.1941C37.2919 22.1941 33.146 25.5229 33.146 29.6291C33.146 33.7353 37.2919 37.064 42.4062 37.064Z" fill="white"/>
<path d="M42.3968 21.936C33.7174 21.936 30.8872 31.7079 32.1087 31.7079C32.4636 31.7079 32.7494 31.1225 33.1873 30.2928C33.2564 30.9289 33.427 31.542 33.6851 32.1227C34.8144 34.3214 37.1053 35.8241 39.7464 35.8241C43.5123 35.8241 46.5637 32.7727 46.5637 29.0068C46.5637 27.541 46.0982 26.1813 45.31 25.0704C51.1731 26.4117 51.5649 31.7079 52.685 31.7079C53.971 31.7079 51.0763 21.936 42.3968 21.936ZM44.7384 27.7991C44.5863 28.5643 43.7289 29.0437 42.8255 28.8639C41.9175 28.6841 41.309 27.919 41.4611 27.1538C41.6132 26.3887 42.4706 25.9093 43.374 26.0891C44.2774 26.2688 44.8905 27.034 44.7384 27.7991Z" fill="#2F2F2F"/>
</svg>
