<svg width="16" height="13" viewBox="0 0 16 13" fill="none" xmlns="http://www.w3.org/2000/svg">
<path fill-rule="evenodd" clip-rule="evenodd" d="M8.00075 0.180176C5.82806 0.180176 5.55538 0.187681 4.70206 0.218342C3.85038 0.249152 3.26906 0.355653 2.76038 0.511973C2.23419 0.673379 1.78788 0.889294 1.34319 1.24074C0.898188 1.59199 0.624813 1.94463 0.419813 2.36016C0.2215 2.76212 0.0864999 3.2215 0.0481874 3.89409C0.00999988 4.5682 0 4.78377 0 6.50018C0 8.21659 0.00968755 8.43131 0.0483125 9.10548C0.0875001 9.7783 0.222312 10.2375 0.42 10.6394C0.6245 11.055 0.897813 11.4077 1.34269 11.759C1.78719 12.1105 2.2335 12.327 2.75938 12.4884C3.26838 12.6446 3.84988 12.7512 4.70138 12.782C5.55475 12.8127 5.82725 12.8202 7.99975 12.8202C10.1726 12.8202 10.4444 12.8127 11.2978 12.782C12.1494 12.7512 12.7314 12.6446 13.2405 12.4884C13.7665 12.327 14.2121 12.1105 14.6566 11.759C15.1016 11.4077 15.375 11.055 15.58 10.6395C15.7767 10.2375 15.9117 9.77816 15.9517 9.10558C15.99 8.43146 16 8.21659 16 6.50018C16 4.78377 15.99 4.56835 15.9517 3.89423C15.9117 3.22141 15.7767 2.76212 15.58 2.36031C15.375 1.94463 15.1016 1.59199 14.6566 1.24074C14.2116 0.889195 13.7666 0.673231 13.24 0.511973C12.7299 0.355653 12.1483 0.249152 11.2966 0.218342C10.4433 0.187681 10.1716 0.180176 7.99825 0.180176H8.00075ZM7.73394 1.319H7.73413L8.00075 1.31905C10.1368 1.31905 10.3899 1.32512 11.2334 1.35539C12.0134 1.38358 12.4368 1.48653 12.7188 1.57303C13.0921 1.68758 13.3583 1.82455 13.6381 2.04575C13.9181 2.26694 14.0915 2.47763 14.2368 2.77254C14.3463 2.99507 14.4768 3.32949 14.5123 3.94568C14.5506 4.61194 14.559 4.81206 14.559 6.49874C14.559 8.18538 14.5506 8.3855 14.5123 9.05176C14.4766 9.66795 14.3463 10.0024 14.2368 10.2249C14.0918 10.5198 13.9181 10.7299 13.6381 10.9509C13.3581 11.1721 13.0923 11.3091 12.7188 11.4236C12.4371 11.5105 12.0134 11.6132 11.2334 11.6414C10.3901 11.6717 10.1368 11.6782 8.00075 11.6782C5.86456 11.6782 5.61138 11.6717 4.76806 11.6414C3.98806 11.6129 3.56469 11.51 3.28256 11.4235C2.90919 11.3089 2.6425 11.172 2.3625 10.9508C2.0825 10.7296 1.90919 10.5194 1.76388 10.2244C1.65438 10.0019 1.52388 9.66741 1.48838 9.05121C1.45 8.385 1.44238 8.18484 1.44238 6.49716C1.44238 4.80944 1.45 4.61036 1.48838 3.9441C1.524 3.32791 1.65438 2.99349 1.76388 2.77071C1.90888 2.47575 2.0825 2.26512 2.3625 2.04392C2.6425 1.82272 2.90919 1.68576 3.28256 1.57096C3.56456 1.48406 3.98806 1.38136 4.76806 1.35302C5.50606 1.3267 5.79206 1.3188 7.28306 1.31747V1.31905C7.42238 1.3189 7.57225 1.31895 7.73394 1.319ZM11.3111 3.12661C11.3111 2.70776 11.7411 2.36846 12.2711 2.36846V2.36821C12.8011 2.36821 13.2311 2.70791 13.2311 3.12661C13.2311 3.5453 12.8011 3.885 12.2711 3.885C11.7411 3.885 11.3111 3.5453 11.3111 3.12661ZM8.00056 3.25459C5.73181 3.25463 3.89237 4.70783 3.89237 6.50018C3.89237 8.29257 5.73188 9.74512 8.00075 9.74512C10.2696 9.74512 12.1084 8.29257 12.1084 6.50018C12.1084 4.70778 10.2694 3.25459 8.00056 3.25459ZM10.6674 6.50018C10.6674 5.33661 9.47344 4.39351 8.00075 4.39351C6.52788 4.39351 5.33406 5.33661 5.33406 6.50018C5.33406 7.66359 6.52788 8.60684 8.00075 8.60684C9.47344 8.60684 10.6674 7.66359 10.6674 6.50018Z" fill="black"/>
</svg>
