<svg width="154" height="162" viewBox="0 0 154 162" fill="none" xmlns="http://www.w3.org/2000/svg">
<path d="M125.876 20.9059H37.9543C33.4321 20.9185 29.0987 22.722 25.901 25.9224C22.7033 29.1228 20.9013 33.4598 20.8887 37.9858V125.982C20.9013 130.508 22.7033 134.845 25.901 138.045C29.0987 141.246 33.4321 143.049 37.9543 143.062H125.876C130.402 143.062 134.743 141.262 137.943 138.059C141.144 134.856 142.942 130.512 142.942 125.982V37.9858C142.942 33.4559 141.144 29.1116 137.943 25.9085C134.743 22.7054 130.402 20.9059 125.876 20.9059ZM136.116 125.982C136.098 128.694 135.013 131.29 133.097 133.208C131.18 135.126 128.586 136.212 125.876 136.23H37.9543C35.2442 136.212 32.6501 135.126 30.7337 133.208C28.8173 131.29 27.7328 128.694 27.7149 125.982V37.9858C27.7328 35.2734 28.8173 32.6772 30.7337 30.7592C32.6501 28.8412 35.2442 27.7558 37.9543 27.7379H125.876C128.586 27.7558 131.18 28.8412 133.097 30.7592C135.013 32.6772 136.098 35.2734 136.116 37.9858V125.982Z" fill="#24332A"/>
<path d="M43.5244 73.4302C43.5244 71.6182 44.2436 69.8805 45.5238 68.5992C46.8039 67.318 48.5402 66.5982 50.3507 66.5982C52.1611 66.5982 53.8974 67.318 55.1775 68.5992C56.4577 69.8805 57.1769 71.6182 57.1769 73.4302V117.838C57.1769 119.65 56.4577 121.388 55.1775 122.669C53.8974 123.95 52.1611 124.67 50.3507 124.67C48.5402 124.67 46.8039 123.95 45.5238 122.669C44.2436 121.388 43.5244 119.65 43.5244 117.838V73.4302Z" fill="#24332A"/>
<path d="M50.3507 52.9069C54.1207 52.9069 57.1769 49.8481 57.1769 46.0749C57.1769 42.3017 54.1207 39.2429 50.3507 39.2429C46.5806 39.2429 43.5244 42.3017 43.5244 46.0749C43.5244 49.8481 46.5806 52.9069 50.3507 52.9069Z" fill="#24332A"/>
<path d="M120.279 91.3436V117.852C120.279 119.664 119.559 121.401 118.279 122.683C116.999 123.964 115.263 124.684 113.452 124.684C111.642 124.684 109.906 123.964 108.625 122.683C107.345 121.401 106.626 119.664 106.626 117.852V91.3436C106.626 88.4173 105.465 85.6109 103.397 83.5417C101.33 81.4725 98.5255 80.31 95.6017 80.31C92.6778 80.31 89.8737 81.4725 87.8063 83.5417C85.7388 85.6109 84.5773 88.4173 84.5773 91.3436V117.852C84.5773 119.664 83.8581 121.401 82.5779 122.683C81.2978 123.964 79.5615 124.684 77.751 124.684C75.9406 124.684 74.2043 123.964 72.9242 122.683C71.644 121.401 70.9248 119.664 70.9248 117.852V73.4438C70.953 71.6407 71.6812 69.9193 72.9553 68.6441C74.2294 67.3689 75.9494 66.64 77.751 66.6119C78.9072 66.5802 80.0505 66.8618 81.0599 67.4271C82.0693 67.9923 82.9072 68.8201 83.4851 69.8229C87.2386 67.6937 91.4849 66.5882 95.7992 66.6168C100.114 66.6454 104.345 67.8072 108.07 69.986C111.795 72.1648 114.883 75.2841 117.025 79.0322C119.168 82.7802 120.29 87.0256 120.279 91.3436Z" fill="#24332A"/>
</svg>
