<svg width="21" height="21" viewBox="0 0 21 21" fill="none" xmlns="http://www.w3.org/2000/svg">
<path d="M13.7812 3.9375C13.7812 3.31665 13.605 2.70856 13.2732 2.18384C12.9413 1.65913 12.4674 1.23934 11.9065 0.973222C11.3455 0.707105 10.7206 0.605587 10.1043 0.680459C9.48798 0.75533 8.90555 1.00352 8.42466 1.3962C7.94376 1.78888 7.58414 2.30993 7.38757 2.89884C7.19099 3.48775 7.16553 4.12034 7.31413 4.72314C7.46273 5.32594 7.7793 5.87422 8.22708 6.30428C8.67485 6.73434 9.23544 7.02855 9.84375 7.15272V18.7671C9.84383 18.9415 9.87854 19.1141 9.94588 19.2749L10.3589 20.2593C10.3727 20.2846 10.3932 20.3057 10.418 20.3205C10.4428 20.3352 10.4711 20.3429 10.5 20.3429C10.5289 20.3429 10.5572 20.3352 10.582 20.3205C10.6069 20.3057 10.6273 20.2846 10.6411 20.2593L11.0541 19.2749C11.1215 19.1141 11.1562 18.9415 11.1563 18.7671V7.15272C11.8969 7.00052 12.5624 6.59761 13.0405 6.01193C13.5187 5.42624 13.7803 4.69359 13.7812 3.9375ZM11.4844 3.9375C11.2897 3.9375 11.0994 3.87977 10.9375 3.7716C10.7756 3.66344 10.6494 3.5097 10.5749 3.32983C10.5004 3.14996 10.4809 2.95203 10.5189 2.76108C10.5569 2.57013 10.6507 2.39474 10.7883 2.25707C10.926 2.1194 11.1014 2.02565 11.2923 1.98767C11.4833 1.94968 11.6812 1.96918 11.8611 2.04368C12.0409 2.11819 12.1947 2.24436 12.3029 2.40624C12.411 2.56812 12.4688 2.75844 12.4688 2.95313C12.4688 3.2142 12.365 3.46458 12.1804 3.64919C11.9958 3.83379 11.7454 3.9375 11.4844 3.9375Z" fill="#1C1C1C"/>
</svg>
