<svg width="19" height="19" viewBox="0 0 19 19" fill="none" xmlns="http://www.w3.org/2000/svg">
<path d="M15.8531 19H3.14688C2.06625 19 1.1875 18.1213 1.1875 17.0406V7.89688C1.1875 6.81625 2.06625 5.9375 3.14688 5.9375H15.8531C16.9338 5.9375 17.8125 6.81625 17.8125 7.89688V17.0288C17.8125 18.1094 16.9338 18.9881 15.8531 18.9881V19ZM3.14688 7.125C2.71938 7.125 2.375 7.46938 2.375 7.89688V17.0288C2.375 17.4563 2.71938 17.8006 3.14688 17.8006H15.8531C16.2806 17.8006 16.625 17.4563 16.625 17.0288V7.89688C16.625 7.46938 16.2806 7.125 15.8531 7.125H3.14688Z" fill="#1C1C1C"/>
<path d="M14.8914 7.125H4.10889V5.39125C4.10889 2.4225 6.53139 0 9.50014 0C12.4689 0 14.8914 2.4225 14.8914 5.39125V7.125ZM5.29639 5.9375H13.7039V5.39125C13.7039 3.07562 11.8158 1.1875 9.50014 1.1875C7.18451 1.1875 5.29639 3.07562 5.29639 5.39125V5.9375Z" fill="#1C1C1C"/>
<path d="M14.25 13.6562C14.9058 13.6562 15.4375 13.1246 15.4375 12.4688C15.4375 11.8129 14.9058 11.2812 14.25 11.2812C13.5942 11.2812 13.0625 11.8129 13.0625 12.4688C13.0625 13.1246 13.5942 13.6562 14.25 13.6562Z" fill="#1C1C1C"/>
<path d="M9.5 13.6562C10.1558 13.6562 10.6875 13.1246 10.6875 12.4688C10.6875 11.8129 10.1558 11.2812 9.5 11.2812C8.84416 11.2812 8.3125 11.8129 8.3125 12.4688C8.3125 13.1246 8.84416 13.6562 9.5 13.6562Z" fill="#1C1C1C"/>
<path d="M4.75 13.6562C5.40584 13.6562 5.9375 13.1246 5.9375 12.4688C5.9375 11.8129 5.40584 11.2812 4.75 11.2812C4.09416 11.2812 3.5625 11.8129 3.5625 12.4688C3.5625 13.1246 4.09416 13.6562 4.75 13.6562Z" fill="#1C1C1C"/>
</svg>
