<svg width="16" height="16" viewBox="0 0 16 16" fill="none" xmlns="http://www.w3.org/2000/svg">
<g clip-path="url(#clip0_114_522)">
<path d="M3.65398 1.328C3.59495 1.25206 3.52043 1.18955 3.43538 1.14462C3.35034 1.0997 3.2567 1.07338 3.1607 1.06742C3.0647 1.06146 2.96853 1.076 2.87858 1.11006C2.78863 1.14413 2.70695 1.19694 2.63898 1.265L1.60498 2.3C1.12198 2.784 0.943983 3.469 1.15498 4.07C2.03072 6.55759 3.45528 8.8161 5.32298 10.678C7.18491 12.5457 9.44341 13.9702 11.931 14.846C12.532 15.057 13.217 14.879 13.701 14.396L14.735 13.362C14.803 13.294 14.8559 13.2124 14.8899 13.1224C14.924 13.0325 14.9385 12.9363 14.9326 12.8403C14.9266 12.7443 14.9003 12.6506 14.8554 12.5656C14.8104 12.4805 14.7479 12.406 14.672 12.347L12.365 10.553C12.2839 10.4901 12.1895 10.4464 12.089 10.4253C11.9885 10.4041 11.8846 10.4061 11.785 10.431L9.59498 10.978C9.30266 11.0511 8.9964 11.0472 8.70603 10.9667C8.41565 10.8863 8.15105 10.7321 7.93798 10.519L5.48198 8.062C5.26875 7.84904 5.11431 7.58448 5.0337 7.2941C4.95308 7.00372 4.94905 6.69741 5.02198 6.405L5.56998 4.215C5.59489 4.1154 5.59685 4.01143 5.57572 3.91096C5.55458 3.81049 5.51091 3.71613 5.44798 3.635L3.65398 1.328ZM1.88398 0.510999C2.05898 0.335949 2.26921 0.20013 2.50072 0.112561C2.73223 0.0249914 2.97973 -0.0123239 3.22676 0.0030924C3.4738 0.0185087 3.71474 0.0863038 3.93356 0.201976C4.15239 0.317648 4.34411 0.478551 4.49598 0.673999L6.28998 2.98C6.61898 3.403 6.73498 3.954 6.60498 4.474L6.05798 6.664C6.0297 6.77743 6.03123 6.89624 6.06242 7.00891C6.09361 7.12157 6.1534 7.22426 6.23598 7.307L8.69298 9.764C8.77582 9.84675 8.87868 9.90664 8.99153 9.93784C9.10439 9.96903 9.22341 9.97046 9.33698 9.942L11.526 9.395C11.7826 9.33084 12.0504 9.32585 12.3093 9.38043C12.5681 9.435 12.8111 9.54769 13.02 9.71L15.326 11.504C16.155 12.149 16.231 13.374 15.489 14.115L14.455 15.149C13.715 15.889 12.609 16.214 11.578 15.851C8.93917 14.9225 6.54325 13.4118 4.56798 11.431C2.58727 9.45601 1.07659 7.06046 0.147983 4.422C-0.214017 3.392 0.110983 2.285 0.850983 1.545L1.88498 0.510999H1.88398Z" fill="#1C1C1C"/>
</g>
<defs>
<clipPath id="clip0_114_522">
<rect width="16" height="16" fill="white"/>
</clipPath>
</defs>
</svg>
