<svg width="18" height="15" viewBox="0 0 18 15" fill="none" xmlns="http://www.w3.org/2000/svg">
<path d="M17 2.67864C16.3985 2.93384 15.7623 3.10354 15.1111 3.18253C15.7975 2.78616 16.3109 2.15916 16.5542 1.41996C15.9111 1.79053 15.2077 2.05175 14.4743 2.19238C14.0249 1.72445 13.441 1.39892 12.7985 1.25817C12.1561 1.11742 11.485 1.16798 10.8725 1.40328C10.2601 1.63857 9.73473 2.04769 9.36487 2.57734C8.99502 3.10699 8.79782 3.73263 8.79895 4.37278C8.79895 4.62576 8.82028 4.86837 8.87467 5.09958C7.56985 5.03745 6.29322 4.70824 5.12829 4.13347C3.96337 3.5587 2.93641 2.75133 2.11459 1.76418C1.83194 2.24111 1.66556 2.78751 1.66556 3.37538C1.66556 4.47957 2.25112 5.45831 3.12253 6.02544C2.60381 6.0115 2.09611 5.87675 1.64209 5.6325V5.66671C1.6427 6.40298 1.90443 7.11653 2.38316 7.68708C2.86189 8.25764 3.52834 8.6503 4.27018 8.79889C4.00247 8.87147 3.71022 8.90568 3.40837 8.90568C3.19825 8.90568 2.98707 8.89428 2.78761 8.85073C2.99977 9.48338 3.40826 10.0366 3.95696 10.4345C4.50566 10.8323 5.16764 11.0553 5.85194 11.0726C4.69113 11.9557 3.25907 12.4347 1.78501 12.4329C1.51623 12.4329 1.25812 12.4215 1 12.3893C2.50007 13.3286 4.24786 13.8256 6.0322 13.8201C12.0681 13.8201 15.367 8.9596 15.367 4.74707C15.3664 4.60979 15.3625 4.47255 15.3553 4.33546C16.0024 3.88474 16.5597 3.32332 17 2.67864V2.67864Z" stroke="black" stroke-miterlimit="10" stroke-linecap="round" stroke-linejoin="round"/>
</svg>
